<?xml version="1.0" encoding="UTF-8"?><svg id="Layer_2" xmlns="http://www.w3.org/2000/svg" viewBox="0 0 324 115.84"><defs><style>.cls-1{fill:#401f51;stroke-width:0px;}</style></defs><g id="Layer_1-2"><path class="cls-1" d="M114.18,14.43c-.7-3.16-3.56-5.21-6.83-5.68-1.84-.29-3.78-.16-5.7.05-4.76.65-9.53,1.01-14.3.55C68.25,7.79,49.34.75,30.18.04,17.97-.51,3.46,4.8.59,18c-3.6,15.66,9.81,28.78,25.36,25.64,2.58-.55,5.16-1.68,6.93-3.68,3.64-3.93,2.11-10.21-3.11-11.77-3.06-1.16-8.24-.77-9.65-4.15-1.22-3.83,3.59-6.08,6.83-6.45,11.45-1.5,30.4.63,28.64,15.36-.82,7.21-4.78,13.47-7.81,19.93-6.73,13.9-15.36,26.95-29.68,33.07-3.33,1.56-7.44,2.4-10.01,5.06-2.27,2.3-1.43,5.83.97,7.62,1.92,1.57,4.55,2.38,7.22,2.76,25.16,2.86,38.13-15.42,46.27-36.47,2.71-6.44,5.37-12.92,7.78-19.5,2.12-5.56,4.39-11.98,9.25-15.64,5.46-4.1,12.32-2.44,18.71-3.23,2.92-.3,5.87-.97,8.64-2.16,4.32-1.84,8.12-5.17,7.28-9.85l-.02-.11Z"/><path class="cls-1" d="M116.18,55.66c-1.8-2.26-5.15-2.02-6.92.21-1.65,1.99-2.25,4.71-3.08,7.12-2.05,6.11-4.71,12.2-9,17.05-.89.97-3.07,2.89-3.51.74-.18-2.04.85-4.2,1.54-6.13,1.52-4.02,3.32-8.01,4.71-12.11.64-2.05.99-4.5-.28-6.33-1.54-2.32-5.2-2.94-7.53-1.43-2.69,1.68-3.55,5.02-4.75,7.8-2.32,5.74-4.38,11.6-8.25,16.48-2.14,2.79-4.9,4.4-3.52-.73,1.53-4.85,3.77-9.67,5.54-14.41.86-2.3,1.78-5.04.65-7.37-.88-1.85-3.19-2.78-5.21-2.67-3.98.17-5.6,3.63-6.98,7.23-.88,2.19-1.77,4.4-2.66,6.59-2.5,6.59-7.78,17.1-1.95,23.03,2.23,2.19,6,2.64,9.1,1.69,2.02-.54,4.01-1.54,6.11-1.58,1.12-.03,2.24.23,3.39.63,1.18.41,2.38.93,3.6,1.28,7.27,2.17,14.66-2.6,19.53-8.54,3.57-4.35,5.67-9.39,7.84-14.49,1.46-3.92,4.47-10.29,1.64-14.03l-.03-.04Z"/><path class="cls-1" d="M323.82,74.11c-.41-1.32-1.65-2.13-2.98-1.75-2.46.8-3.75,3.21-5.39,5.29-1.2,1.59-2.55,3.16-3.92,4.5-.45.4-4.16,4.17-4.36,2.9-.07-.76.56-1.85.81-2.68,1.84-4.64,4.91-12.23,7.09-17.72,1.43-3.46,2.54-6.03.5-9.03-2.01-2.93-7.27-3.42-9.4-.49-.96,1.28-1.66,3.32-2.68,5.8-1.98,4.7-3.68,9.94-6.11,14.16-.74,1.27-1.56,2.55-2.43,3.77-1.9,2.78-6.09,7.27-4.99,2.15,1.26-4.41,3.42-9.12,5.21-13.82,1.1-3.06,2.59-5.55,2.71-8.63-.02-4.12-4.63-6.31-8.17-5.13-3.48,1.12-4.09,5.43-5.54,8.5-1.41,3.52-2.88,7.44-4.53,10.4-4.97,8.65-14.37,21.98-6.64,1.75,2.05-5.19,2.18-9.5-2.02-13.63-3-2.85-5.2-4.16-5.75-8.45-.99-7.79-8.18-6.52-10.92-.5-1.93,4.39.59,8.68-1.85,13.41-2.02,4.15-3.4,8.03-6.03,11.94-1.3,2.14-10.24,13.22-8.12,4.93,1.32-4.77,3.61-9.73,5.43-14.56,1.23-3.72,3.78-7.39,2.28-10.67-.94-1.96-3.26-2.97-5.38-2.94-3.48.23-5.29,1.8-8.82.3-12.35-5-20.43,9.1-23.39,19.68-.76,2.66-1.55,5.31-3.2,7.57-1.35,1.79-3.45,4.15-5.1,4.38-2.26-.47,3.51-12.61,4.11-14.75,1.5-4.23,3.83-9.26,1.45-13.54-1.75-3.15-5.72-3.91-9.09-3.3-1.65.26-3.26.85-4.64,1.47-2.11.99-3.88,1.51-5.86.43-5.95-3.51-8.08-1.6-14.13-1.1-3.83.11-8.59-1.52-11.99.77-1.41,1.15-2.22,3.38-3,5.26-.88,2.17-1.73,4.48-2.7,6.61-1.56,3.45-3.46,5.77-5.82,8.55-3.57,4.36-8.43,8.44-14.12,8.92-1.51.11-3.11-.13-4.36-1.01-1.53-1.04-1.95-2.63-.46-3.5,1.53-.86,3.45-.82,5.17-1.08,2.24-.29,4.39-.87,6.21-1.77,5.82-2.78,9.43-10.06,8.86-16.43-.99-7.9-10.69-10.05-17.28-7.62-5.63,1.9-9.89,6.51-12.69,11.62-4.74,8.44-7.78,23.06,3.24,27.72,4.04,1.64,9.29,1.64,13.66.52,2.01-.44,4.17-1.53,6.03-2.13,2.62-.88,2.85,3.11,7.11,3.11,3.69.18,7.43-1.89,8.75-5.29,2.07-4.86,4.55-11.33,6.44-16.02.74-1.85,1.58-3.67,2.99-5.09,1.63-1.71,6.17-4.77,5.11-.36-1.88,6.17-4.87,12.58-7.19,18.75-1.18,2.89-2.51,6.96,1.57,7.8,3.05.64,6.56-.48,8.67-2.77,1.43-1.58,2.1-3.52,3.27-6.41,1.08-2.71,2.28-5.74,3.38-8.51,1.42-3.39,2.15-6.17,4.25-8.39.99-1.01,3.62-3.3,5.04-2.58,1.3,1.46-1.54,6.74-2.09,8.65-1.77,5.06-4.08,10.97-2.22,16.18,2.24,5.5,9.91,5.74,14.59,3.12,6.8-4.06,7.14.44,13.39.64,2.6.07,5.19-1.15,7.45-2.17,1.89-.83,3.09-.53,4.9.44,1.45.77,3.22,1.59,4.92,1.8,9.67,1.3,17.26-9.12,21.95-17.79,1.5-2.36,3.54-8.86,5.78-9.34,2.31.5-1.62,8.48-1.98,10.32-.63,2-1.07,3.91-1.27,5.78-.84,5.85,2.42,10.83,8.59,11.03,5.16.39,8.21-4.09,11.68-2.92,1.47.53,2.94,1.6,4.29,2.35,1.23.72,2.59,1.38,1.07,2.4-1.92,1.23-4.92,3.17-6.33,5.38-3.55,4.81-2.34,12.15,3.76,13.99,10.56,2.81,16.25-5.84,20.03-14.43.89-1.71,1.96-3.24,3.44-4.39,5.8-3.74,10.93-6.45,16.14-13.17,1.96-2.5,4.45-5.93,3.61-9.16v-.04ZM138.62,63.29c1.52.57-.15,3.35-.75,4.29-1.19,1.93-3.72,3.95-5.9,3.8-3.25-.73,2.29-6.21,3.48-6.9,1.23-.87,2.46-1.38,3.14-1.2h.03ZM225.92,79.35c-.89,1.39-2.28,2.77-3.78,3.57-1.57.87-3.1.6-3.25-1.16-.14-4.63,4.92-16.54,9.25-17.9,1.12-.29,2.19.08,2.67,1.09.33.71.3,1.73-.05,2.93-.34,1.2-.94,2.6-1.55,4.14-.96,2.32-2.08,5.46-3.26,7.28l-.03.04ZM281.83,106.45c-.38-.16-.39-.56-.26-.96.47-1.39,3.2-3.49,4.57-3.57,1.29.34-1.96,3.74-2.69,4.08-.47.29-1.05.61-1.59.46h-.03Z"/></g></svg>